<svg width="292" height="68" viewBox="0 0 292 68" fill="none" xmlns="http://www.w3.org/2000/svg">
<g clip-path="url(#clip0_71_2)">
<path d="M57.612 52.5652C58.0325 52.1447 59.2941 52.8455 58.8736 53.6866C54.6683 59.9945 45.557 67.4238 31.2591 66.7229C12.3354 65.7417 0 53.2661 0 33.5014C0 14.1572 13.4568 0.139648 32.2403 0.139648C45.9775 0.139648 53.6871 5.32613 56.6308 12.1947C58.7334 17.3813 52.7059 23.1284 44.1552 22.1472C42.6133 22.007 42.0526 20.4651 42.3329 19.0634C44.015 11.7742 36.1652 3.36368 28.3154 3.36368C26.7734 3.36368 25.3717 3.64403 23.97 4.3449C15.98 7.98946 15.8398 23.1284 19.4844 33.5014C25.5119 50.7429 36.3054 58.4526 45.1364 58.4526C50.8836 58.4526 54.388 56.0696 57.612 52.5652Z" fill="black"/>
<path d="M114.806 20.6058C122.516 37.7071 115.927 57.3317 100.087 64.4806C96.1626 66.3029 91.9574 67.1439 87.8921 67.1439C75.4163 67.1439 63.2211 59.4343 57.4739 46.5382C49.7643 29.577 56.3525 9.95242 72.1924 2.66333C76.117 0.841051 80.1822 0 84.2475 0C96.5826 0 108.918 7.84979 114.806 20.6058ZM99.246 62.5181C104.993 59.995 103.732 44.8561 96.5827 28.8761C89.2935 12.8961 78.7803 1.96245 73.0337 4.62578C67.2862 7.28913 68.4078 22.2879 75.697 38.2678C82.9855 54.2478 93.4988 65.1815 99.246 62.5181Z" fill="black"/>
<path d="M176.046 63.4989C177.027 64.1997 176.607 65.4613 175.345 65.4613H154.6C153.338 65.4613 153.058 64.1997 153.898 63.4989C155.16 62.5176 155.721 61.3963 155.721 58.4526V18.0821C155.721 12.6153 153.898 7.70914 147.731 7.70914C143.105 7.70914 139.321 10.793 137.077 13.176V58.4526C137.077 61.3963 137.498 62.5176 138.9 63.4989C139.741 64.1997 139.461 65.4613 138.199 65.4613H117.313C116.051 65.4613 115.771 64.1997 116.752 63.4989C118.014 62.5176 118.574 61.3963 118.574 58.4526V8.55019C118.574 5.60648 118.014 4.48508 116.752 3.50386C115.771 2.80299 116.051 1.40122 117.313 1.40122H132.452C134.975 1.40122 137.077 3.50386 137.077 6.02701V9.81177C140.161 6.30736 147.17 0.139648 158.244 0.139648C168.056 0.139648 174.224 7.84927 174.224 15.1384V58.4526C174.224 61.3963 174.785 62.5176 176.046 63.4989Z" fill="black"/>
<path d="M234.134 2.80313C233.292 9.95204 226.844 23.9696 224.742 29.1561C222.359 35.3238 216.051 50.6029 212.266 59.8545C213.107 61.8169 213.808 63.0785 214.509 63.3588C215.631 63.7794 215.35 65.4615 214.369 65.4615H192.221C190.539 65.4615 190.679 63.6392 191.38 63.2187C193.342 61.9571 190.539 55.6492 188.997 51.1636C187.315 45.9772 175.54 11.9146 174.839 9.95204C173.157 5.1861 172.036 5.04593 170.774 3.92453C170.073 3.504 170.213 1.40137 171.755 1.40137H193.342C195.025 1.40137 194.744 2.9433 194.184 3.78435C193.202 5.32628 210.584 56.0698 210.584 56.0698C210.584 56.0698 217.873 39.9496 219.976 34.3426C224.882 21.7268 218.434 7.28875 215.49 3.504C214.929 2.66295 215.07 1.40137 216.191 1.40137H232.872C233.573 1.40137 234.134 2.10225 234.134 2.80313Z" fill="black"/>
<path d="M288.648 20.6058C296.358 37.7071 289.77 57.3317 273.93 64.4806C270.005 66.3029 265.8 67.1439 261.735 67.1439C249.259 67.1439 237.064 59.4343 231.317 46.5382C223.607 29.577 230.195 9.95242 246.035 2.66333C249.96 0.841051 254.025 0 258.09 0C270.425 0 282.761 7.84979 288.648 20.6058ZM273.089 62.5181C278.836 59.995 277.575 44.8561 270.425 28.8761C263.136 12.8961 252.623 1.96245 246.876 4.62578C241.129 7.28913 242.251 22.2879 249.54 38.2678C256.828 54.2478 267.341 65.1815 273.089 62.5181Z" fill="black"/>
</g>
<defs>
<clipPath id="clip0_71_2">
<rect width="292" height="68" fill="white"/>
</clipPath>
</defs>
</svg>
